<svg width="120" height="120" viewBox="0 0 120 120" xmlns="http://www.w3.org/2000/svg">
  <style>
    .aetherium-stroked {
      fill: none;
      stroke-miterlimit: 10;
      stroke-width: 5px;
      stroke: #000000;
    }
    .aetherium-filled {
      fill: #b157cf;
      stroke: #000000;
      stroke-width: 5px;
      stroke-miterlimit: 10;
    }
    @keyframes pulse-light-stroked {
      0%   { opacity: 1; stroke: #000000; }
      50%  { opacity: 0; stroke: #000000; }
      100% { opacity: 1; stroke: #000000; }
    }
    @keyframes pulse-light-filled {
      0%   { opacity: 0; }
      50%  { opacity: 1; }
      100% { opacity: 0; }
    }
    .pulse-light-stroked { animation: pulse-light-stroked 4s ease-in-out infinite; }
    .pulse-light-filled { animation: pulse-light-filled 4s ease-in-out infinite; }
  </style>
  <g transform="translate(0, 10) scale(0.4)">
    <polygon class="aetherium-stroked pulse-light-stroked" points="122.17 188.35 224.81 11.25 180.01 11.25 122.17 110.67 64.32 11.25 19.52 11.25 122.17 188.35"/>
    <polygon class="aetherium-stroked pulse-light-stroked" points="166.88 188.35 269.52 11.25 224.72 11.25 166.88 110.67 109.04 11.25 64.24 11.25 166.88 188.35"/>
    <polygon class="aetherium-filled pulse-light-filled" points="122.17 188.35 224.81 11.25 180.01 11.25 122.17 110.67 64.32 11.25 19.52 11.25 122.17 188.35"/>
    <polygon class="aetherium-filled pulse-light-filled" points="166.88 188.35 269.52 11.25 224.72 11.25 166.88 110.67 109.04 11.25 64.24 11.25 166.88 188.35"/>
  </g>
</svg>