<svg width="250" height="250" viewBox="0 0 250 250" xmlns="http://www.w3.org/2000/svg">
  <style>
    .aetherium-stroked {
      fill: none;
      stroke-miterlimit: 10;
      stroke-width: 6px;
      stroke: #ffffff;
    }
    .aetherium-filled {
      fill: #b157cf;
      stroke: #000000;
      stroke-width: 6px;
      stroke-miterlimit: 10;
    }
    @keyframes pulse-dark-stroked {
      0%   { opacity: 1; stroke: #ffffff; }
      50%  { opacity: 0; stroke: #000000; }
      100% { opacity: 1; stroke: #ffffff; }
    }
    @keyframes pulse-dark-filled {
      0%   { opacity: 0; }
      50%  { opacity: 1; }
      100% { opacity: 0; }
    }
    .pulse-dark-stroked { animation: pulse-dark-stroked 4s ease-in-out infinite; }
    .pulse-dark-filled { animation: pulse-dark-filled 4s ease-in-out infinite; }
  </style>
  <g transform="translate(34, 68) scale(0.6)">
    <polygon class="aetherium-stroked pulse-dark-stroked" points="122.17 188.35 224.81 11.25 180.01 11.25 122.17 110.67 64.32 11.25 19.52 11.25 122.17 188.35"/>
    <polygon class="aetherium-stroked pulse-dark-stroked" points="166.88 188.35 269.52 11.25 224.72 11.25 166.88 110.67 109.04 11.25 64.24 11.25 166.88 188.35"/>
    <polygon class="aetherium-filled pulse-dark-filled" points="122.17 188.35 224.81 11.25 180.01 11.25 122.17 110.67 64.32 11.25 19.52 11.25 122.17 188.35"/>
    <polygon class="aetherium-filled pulse-dark-filled" points="166.88 188.35 269.52 11.25 224.72 11.25 166.88 110.67 109.04 11.25 64.24 11.25 166.88 188.35"/>
  </g>
</svg>
